<svg width="145" height="28" viewBox="0 0 145 28" fill="none" xmlns="http://www.w3.org/2000/svg">
<path d="M60.1076 19.8036C60.6116 19.8036 61.064 19.9072 61.464 20.1152C61.864 20.3151 62.1961 20.5512 62.4601 20.8232L61.5236 21.9511C61.3237 21.7672 61.1117 21.6197 60.8878 21.5077C60.6718 21.3877 60.4237 21.3271 60.1437 21.3271C59.7919 21.3271 59.4679 21.4271 59.172 21.6269C58.884 21.8269 58.6517 22.1152 58.4757 22.4911C58.3077 22.8671 58.2238 23.3196 58.2238 23.8476C58.2238 24.6475 58.3954 25.2717 58.7394 25.7196C59.0834 26.1676 59.5443 26.3915 60.1203 26.3915C60.44 26.3915 60.724 26.3196 60.9718 26.1757C61.2278 26.0317 61.4517 25.8591 61.6437 25.6591L62.5802 26.7636C61.9243 27.5315 61.0799 27.9149 60.048 27.915C59.392 27.915 58.7875 27.7629 58.2355 27.4589C57.6837 27.1549 57.2394 26.707 56.9035 26.1152C56.5756 25.5152 56.4122 24.779 56.4122 23.9071C56.4123 23.0432 56.5802 22.3071 56.9161 21.6991C57.2601 21.0833 57.7117 20.6148 58.2716 20.2948C58.8395 19.9669 59.4517 19.8037 60.1076 19.8036ZM80.0675 19.8036C80.7714 19.8036 81.3873 19.9633 81.9152 20.2831C82.4511 20.5951 82.8672 21.0514 83.1632 21.6513C83.4672 22.2513 83.6193 22.9752 83.6193 23.8232C83.6193 24.6712 83.4672 25.4035 83.1632 26.0195C82.8672 26.6273 82.4511 27.0958 81.9152 27.4238C81.3873 27.7516 80.7713 27.915 80.0675 27.915C79.3635 27.915 78.7432 27.7517 78.2072 27.4238C77.6792 27.0958 77.2631 26.6274 76.9591 26.0195C76.6631 25.4035 76.5158 24.6711 76.5158 23.8232C76.5158 22.9673 76.6632 22.2432 76.9591 21.6513C77.2631 21.0514 77.6793 20.5951 78.2072 20.2831C78.7432 19.9631 79.3635 19.8036 80.0675 19.8036ZM41.466 23.4277C41.5459 23.6516 41.6215 23.8878 41.6935 24.1357C41.7655 24.3835 41.842 24.6272 41.922 24.8671H41.9699C42.0498 24.6273 42.1217 24.3835 42.1857 24.1357C42.2577 23.8877 42.3342 23.6516 42.4142 23.4277L43.6495 19.9472H45.5695V27.7714H43.962V24.9032C43.962 24.6474 43.9742 24.3635 43.9982 24.0517C44.0302 23.7318 44.0619 23.4116 44.0939 23.0917C44.1339 22.7717 44.1656 22.4872 44.1896 22.2392H44.1417L43.506 24.0995L42.3898 27.0878H41.4181L40.3019 24.0995L39.6779 22.2392H39.63C39.662 22.4872 39.6937 22.7717 39.7257 23.0917C39.7577 23.4116 39.7857 23.7318 39.8097 24.0517C39.8417 24.3635 39.8576 24.6474 39.8576 24.9032V27.7714H38.2736V19.9472H40.2062L41.466 23.4277ZM52.0587 27.7714H50.2941V19.9472H52.0587V27.7714ZM69.4679 19.9472C70.0199 19.9472 70.5246 20.0237 70.9806 20.1757C71.4363 20.3197 71.8005 20.5671 72.0724 20.9189C72.3444 21.2709 72.4806 21.7597 72.4806 22.3837C72.4805 22.9595 72.3518 23.4355 72.0958 23.8114C71.8479 24.1793 71.5119 24.4556 71.088 24.6396L72.8644 27.7714H70.8839L69.3839 24.9511H68.4122V27.7714H66.6486V19.9472H69.4679ZM17.5148 0.00480567H22.4152C23.3742 0.0447657 24.2546 0.538491 24.7765 1.33L31.3497 12.5165C31.7887 13.3554 31.7887 14.3515 31.3497 15.1904L24.7726 26.3827C24.2543 27.1777 23.375 27.6758 22.4152 27.7187H9.26185C8.30266 27.6752 7.42425 27.1772 6.90638 26.3827L0.329235 15.1904C-0.109745 14.3515 -0.109745 13.3554 0.329235 12.5165L6.90443 1.33488C7.4225 0.540513 8.30244 0.0443543 9.26185 0.00480567H17.379C17.4239 -0.00160189 17.4699 -0.00160189 17.5148 0.00480567ZM7.72279 25.915C8.07203 26.4228 8.63963 26.7445 9.26185 26.788H16.631L12.4103 19.6191H4.02064L7.72279 25.915ZM19.3937 19.3876C19.3092 19.5293 19.1545 19.616 18.9874 19.6161H13.504L17.7257 26.788H22.4152C23.037 26.7442 23.6042 26.4225 23.9533 25.915L26.3253 21.8827L22.1251 14.7958L19.3937 19.3876ZM80.0675 21.3271C79.5316 21.3271 79.108 21.5474 78.796 21.9872C78.4841 22.4272 78.3273 23.0392 78.3273 23.8232C78.3273 24.6072 78.484 25.2312 78.796 25.6952C79.108 26.1591 79.5316 26.3915 80.0675 26.3915C80.6035 26.3915 81.028 26.1592 81.34 25.6952C81.6519 25.2313 81.8078 24.607 81.8078 23.8232C81.8077 23.0393 81.6519 22.4272 81.34 21.9872C81.028 21.5472 80.6035 21.3271 80.0675 21.3271ZM68.4122 23.5478H69.3244C69.7881 23.5477 70.1401 23.4515 70.38 23.2597C70.6279 23.0598 70.752 22.7675 70.7521 22.3837C70.7521 21.9997 70.628 21.731 70.38 21.579C70.1401 21.4271 69.7881 21.3515 69.3244 21.3515H68.4122V23.5478ZM22.6886 13.8876L26.8722 20.953L30.5372 14.7275C30.8083 14.1757 30.8083 13.5321 30.5372 12.9804L26.9064 6.80363L22.6886 13.8876ZM13.5177 18.6943H18.7189L21.2931 14.3593H16.1115L13.5177 18.6943ZM1.15052 12.9823L1.14759 12.9853C0.87651 13.537 0.87651 14.1806 1.14759 14.7323L3.47865 18.6933H11.8683L9.13099 14.0868C9.0446 13.9422 9.0446 13.7627 9.13099 13.6181L11.8683 9.01848H3.47865L1.15052 12.9823ZM10.09 13.8544L12.6915 18.2363L15.2824 13.8749L12.6808 9.49309L10.09 13.8544ZM16.1388 13.4277L21.3488 13.4267L18.7257 9.01848H13.5177L16.1388 13.4277ZM13.5304 8.0927H18.9943C19.1613 8.0928 19.316 8.17964 19.4005 8.32121L22.1535 12.953L26.3585 5.88176L23.9581 1.79582L23.9542 1.79387C23.6027 1.29009 23.0354 0.971649 22.4152 0.930587H17.715L13.5304 8.0927ZM43.0128 0.0067588C43.9666 -0.013887 44.9135 0.159751 45.7863 0.515548C46.5149 0.806893 47.1518 1.26475 47.6349 1.8466C48.0541 2.34419 48.3033 2.9463 48.3517 3.57512V3.75383H44.7394C44.6358 3.59792 44.4902 3.4694 44.3175 3.37981C43.9224 3.16787 43.4694 3.06368 43.0128 3.08098C42.5422 3.05511 42.0724 3.14698 41.6535 3.3466C41.4613 3.44588 41.3552 3.64429 41.3859 3.84563C41.3859 4.14616 41.7241 4.24976 42.1339 4.40617C42.7393 4.62326 43.3577 4.80927 43.9855 4.96281C44.8419 5.16073 45.679 5.42445 46.4874 5.75188C47.1388 6.01173 47.7067 6.42283 48.1349 6.94524C48.5411 7.49741 48.7467 8.154 48.7228 8.82024C48.7502 9.99078 48.127 11.0934 47.0714 11.7421C45.8849 12.4298 44.4993 12.7667 43.0997 12.7089C42.1151 12.7301 41.1354 12.5725 40.2169 12.2441C39.4325 11.9754 38.7391 11.5191 38.2072 10.9228C37.7402 10.3943 37.4692 9.74169 37.4337 9.06047V8.99504L37.4376 8.955H41.0431C41.1518 9.16347 41.3242 9.33816 41.5392 9.45695C42.5712 9.873 43.7459 9.86929 44.7745 9.44621C44.997 9.32604 45.1255 9.09848 45.1056 8.86125C45.1056 8.6979 45.1051 8.67265 45.007 8.58195C44.7957 8.40875 44.5469 8.2786 44.2775 8.20012C43.8338 8.04364 43.1483 7.8466 42.2384 7.61027C41.4279 7.42402 40.6412 7.15885 39.8908 6.82024C39.2644 6.54315 38.7273 6.11937 38.3341 5.59074C37.9531 5.03341 37.7615 4.38333 37.7833 3.72453C37.7763 3.0231 38.0138 2.33844 38.4611 1.77141C38.9456 1.18125 39.5958 0.723958 40.341 0.450118C41.1898 0.136939 42.0989 -0.0135157 43.0128 0.0067588ZM68.7579 0.00968848C71.1826 0.110783 73.2765 1.64122 73.9288 3.81731C74.0626 4.25961 74.1302 4.71745 74.13 5.17668V7.54484C74.1285 7.99287 74.0629 8.43917 73.9337 8.87102C73.2717 11.1392 71.0437 12.7157 68.5001 12.7157C65.9567 12.7156 63.7295 11.1391 63.0675 8.87102C62.9289 8.44021 62.8522 7.99409 62.839 7.54484V5.17668C62.852 4.7158 62.9325 4.25797 63.0792 3.81731C63.7694 1.56643 65.9916 0.0110306 68.5245 0.00480567L68.7579 0.00968848ZM121.328 0.00968848C123.756 0.110689 125.852 1.64158 126.505 3.81828C126.639 4.26051 126.707 4.71754 126.707 5.17668V7.54582C126.707 7.9939 126.641 8.44077 126.513 8.87297C125.85 11.1402 123.621 12.7157 121.076 12.7157C118.532 12.7155 116.303 11.1401 115.641 8.87297C115.501 8.44226 115.425 7.99528 115.415 7.54582V5.17668C115.426 4.71621 115.504 4.25921 115.649 3.81828C116.337 1.56763 118.56 0.0114994 121.094 0.00480567L121.328 0.00968848ZM53.8165 0.330001C54.2709 0.360657 54.682 0.587339 54.922 0.939376L58.0861 5.955V0.330001H61.421L61.4259 11.204C61.441 11.5137 61.316 11.8151 61.0802 12.039C60.8443 12.2629 60.518 12.3899 60.1769 12.3896H58.1066L53.7892 5.63274V11.3124C53.7727 11.5776 53.6548 11.8311 53.4533 12.0273C53.2179 12.2563 52.8888 12.3873 52.5441 12.3896H50.4884V0.330001H53.8165ZM99.8849 0.330001C102.43 0.358924 104.477 2.25868 104.477 4.59172C104.477 6.92485 102.43 8.82451 99.8849 8.85344H96.8097L96.8107 11.3124C96.7943 11.5777 96.6767 11.8311 96.4767 12.0273C96.2433 12.2562 95.9172 12.3873 95.5753 12.3896H93.5382V0.330001H99.8849ZM109.473 9.3925H113.647V11.1454C113.673 11.4605 113.56 11.7716 113.332 12.0068C113.105 12.2418 112.784 12.3803 112.443 12.3896H106.24V0.330001H109.473V9.3925ZM83.9484 0.330001C84.5105 0.352566 84.9886 0.718705 85.1203 1.22649C85.1933 1.45709 85.7906 3.31173 86.4464 5.34172L86.5929 5.79582L88.3117 0.330001H91.7736C91.7736 0.330001 90.9715 2.84967 90.1329 5.48137L89.9464 6.06633C89.1067 8.70153 88.2867 11.2721 88.2531 11.37C88.2185 11.4696 88.1754 11.5669 88.1242 11.6601C87.9256 12.0936 87.4715 12.3789 86.964 12.3886H85.2804L84.881 11.1874L83.1378 5.75871L82.9054 6.49113C82.1077 9.00672 81.3442 11.3965 81.3048 11.4892C81.1398 12.0399 80.5881 12.4127 79.9728 12.3886L78.3634 12.3857L74.4835 0.330978H76.9347C77.5278 0.319006 78.0518 0.688818 78.1974 1.22258C78.2713 1.47306 78.967 3.58049 79.6818 5.7675L81.3927 0.330001H83.9484ZM136.524 0.330001C137.086 0.352458 137.565 0.718622 137.696 1.22649C137.77 1.45728 138.367 3.31185 139.023 5.34172L139.169 5.79582L140.888 0.330001H144.35C144.35 0.330001 140.899 11.1668 140.829 11.37C140.795 11.4697 140.751 11.5668 140.699 11.6601C140.501 12.0936 140.047 12.3789 139.539 12.3886H137.856L137.457 11.1874L135.714 5.75871L135.482 6.49113C134.684 9.00675 133.92 11.3965 133.881 11.4892C133.716 12.0399 133.163 12.4127 132.548 12.3886L130.94 12.3857L127.06 0.330978H129.511C130.104 0.319055 130.627 0.688928 130.773 1.22258C130.847 1.47306 131.543 3.58049 132.258 5.7675L133.969 0.330001H136.524ZM121.073 3.31926C120.5 3.31926 119.949 3.52644 119.537 3.89543C119.121 4.25673 118.878 4.75597 118.862 5.28313V7.54582C118.878 8.00996 119.074 8.45391 119.414 8.79582C119.838 9.24207 120.449 9.50082 121.092 9.50676C121.721 9.50052 122.315 9.24058 122.719 8.79582C123.047 8.45001 123.229 8.00552 123.229 7.54582H123.233L123.232 7.26164C123.23 6.68035 123.225 5.63531 123.225 5.28313C123.223 4.75776 122.987 4.25611 122.573 3.89543C122.173 3.53223 121.635 3.32526 121.073 3.31926ZM68.4992 3.31926C67.9262 3.31957 67.3751 3.5258 66.964 3.89445C66.5485 4.25618 66.3043 4.75508 66.2853 5.28215V7.54484C66.3026 8.00938 66.5005 8.45332 66.8419 8.79484C67.2676 9.24072 67.878 9.49849 68.5216 9.50481C69.1495 9.49847 69.7435 9.23943 70.1466 8.79484C70.4745 8.44904 70.6552 8.0045 70.6554 7.54484L70.6544 7.26067C70.6526 6.67942 70.6476 5.63424 70.6476 5.28215C70.6458 4.75684 70.4107 4.25517 69.9972 3.89445C69.597 3.53127 69.0602 3.32519 68.4992 3.31926ZM9.26185 0.940353C8.64408 0.979121 8.07838 1.29465 7.72767 1.79582L4.0265 8.0927H12.4415L16.6212 0.940353H9.26185ZM96.8097 5.78899H99.8917C100.613 5.78499 101.195 5.24601 101.191 4.58488C101.186 3.92353 100.598 3.39056 99.8761 3.39445H96.8097V5.78899Z" fill="#6638B8"/>
</svg>
